# xmcd
#
# Track frame offsets:
# 150
# 21100
# 38861
# 55418
# 73473
# 88742
# 104802
# 115892
# 131680
# 146754
# 162272
# 174663
# 191276
#
# Disc length: 2761 seconds
#
# Revision: 2
# Processed by: cddbd v1.5.2PL0 Copyright (c) Steve Scherf et al.
# Submitted via: TinyPlayer 2.8
#
DISCID=c40ac70d
DTITLE=A Thousand Horses - Southernality
DYEAR=2015
DGENRE=Southern Rock
TTITLE0=First Time
TTITLE1=Heaven Is Close
TTITLE2=Smoke
TTITLE3=Travelin' Man
TTITLE4=Tennessee Whiskey
TTITLE5=Sunday Morning
TTITLE6=Southernality
TTITLE7=(This Ain't No) Drunk Dial
TTITLE8=Landslide
TTITLE9=Back to Me
TTITLE10=Trailer Trashed
TTITLE11=Hell on My Heart
TTITLE12=Where I'm Going
EXTD=Location:  - UPC: 602547180773 - Catalogue number: B002261302 - Label: Republic Nashville - ASIN: B00S24RSUQ - Release Date: 2015 06 09 - Discogs: a4643911 - MUSICBRAINZ_ALBUMID: f2d7d028-3fea-4fed-9c44-1a14a4d43949 - AMG: mn0002534031,mw0002824598;
EXTT0=
EXTT1=
EXTT2=
EXTT3=
EXTT4=
EXTT5=
EXTT6=
EXTT7=
EXTT8=
EXTT9=
EXTT10=
EXTT11=
EXTT12=
PLAYORDER=
